# xmcd
#
# Track frame offsets:
#	150
#	17781
#	32865
#	48849
#	64216
#	81201
#	99444
#	116164
#	131660
#	152975
#	170124
#	187824
#	201233
#	215855
#	232417
#	248753
#
# Disc length: 3555 seconds
#
# Revision: 0
# Processed by: cddbd v1.5.1PL2 Copyright (c) Steve Scherf et al.
# Submitted via: EasyCDDAExtractor 4.6.9.1
#
DISCID=ee0de110
DTITLE=Jo Dee Messina - Greatest Hits
DYEAR=2003
DGENRE=Country
TTITLE0=Was That My Life
TTITLE1=I'm Alright
TTITLE2=Heads Carolina,Tails California
TTITLE3=Bye-Bye
TTITLE4=Stand Beside Me
TTITLE5=Bring On The Rain (With Tim McGraw)
TTITLE6=Lesson In Leavin'
TTITLE7=That's The Way
TTITLE8=Burn
TTITLE9=Downtime
TTITLE10=Because You Love Me
TTITLE11=You're Not In Kansas Anymore
TTITLE12=Wishing Well
TTITLE13=You Belong In The Sun
TTITLE14=I Wish
TTITLE15=Bring On The Rain (Duet with Tim McGraw)
EXTD=
EXTT0=
EXTT1=
EXTT2=
EXTT3=
EXTT4=
EXTT5=
EXTT6=
EXTT7=
EXTT8=
EXTT9=
EXTT10=
EXTT11=
EXTT12=
EXTT13=
EXTT14=
EXTT15=
PLAYORDER=
